# xmcd CD database file generated by OrangeCD 5.2
#
# Track frame offsets:
#	150
#	15567
#	32405
#	51347
#	69613
#	87130
#	105022
#	118263
#	133980
#	153447
#	169013
#	187050
#	204566
#	223578
#	241844
#	257185
#	286701
#	302118
#
# Disc length: 4188 seconds
#
# Revision: 0
# Processed by: cddbd v1.5.2PL0 Copyright (c) Steve Scherf et al.
# Submitted via: OrangeCD 5.2
#
DISCID=fa105a12
DTITLE=Various Artist - Promo Only Country Radio February 2007
DYEAR=1900
DGENRE=Country
TTITLE0=Sugarland - Settlin'
TTITLE1=Kenny Chesney - Beer in Mexico
TTITLE2=Heartland - Built to last
TTITLE3=Alan Jackson - A woman's love
TTITLE4=Emerson Drive - Moments
TTITLE5=Jimmy Buffett - Everybody's on the phone
TTITLE6=George Jones - God's country
TTITLE7=John Anderson - A woman knows
TTITLE8=Martina McBride - Anyway
TTITLE9=Cole Deggs and the Lonesome - I got more
TTITLE10=Allison Krauss and John Waite - Missing you
TTITLE11=Catherine Britt - What I did last night
TTITLE12=Joan Osborne - Who divided
TTITLE13=Bruce Hornsby and teh Noisemakers - King harvest
TTITLE14=Guster - This wheels on fire
TTITLE15=Widespread Panic - Chest fever
TTITLE16=Aron Russell - You won't be lonely long
TTITLE17=Brittany Clarke - Dream
EXTD=
EXTT0=
EXTT1=
EXTT2=
EXTT3=
EXTT4=
EXTT5=
EXTT6=
EXTT7=
EXTT8=
EXTT9=
EXTT10=
EXTT11=
EXTT12=
EXTT13=
EXTT14=
EXTT15=
EXTT16=
EXTT17=
PLAYORDER=
